<svg xmlns="http://www.w3.org/2000/svg" xmlns:xlink="http://www.w3.org/1999/xlink" width="300" zoomAndPan="magnify" viewBox="0 0 224.87999 74.999997" height="100" preserveAspectRatio="xMidYMid meet" version="1.0"><defs><g/><clipPath id="1eabdea409"><path d="M 0 0.0195312 L 74.960938 0.0195312 L 74.960938 74.980469 L 0 74.980469 Z M 0 0.0195312 " clip-rule="nonzero"/></clipPath></defs><g clip-path="url(#1eabdea409)"><path fill="#161616" d="M 18.171875 0.0195312 L 56.789062 0.0195312 C 57.382812 0.0195312 57.976562 0.0507812 58.570312 0.109375 C 59.160156 0.164062 59.75 0.253906 60.332031 0.371094 C 60.917969 0.484375 61.492188 0.628906 62.0625 0.800781 C 62.632812 0.976562 63.191406 1.175781 63.742188 1.402344 C 64.292969 1.632812 64.828125 1.886719 65.355469 2.164062 C 65.878906 2.445312 66.390625 2.75 66.882812 3.082031 C 67.378906 3.414062 67.855469 3.765625 68.316406 4.144531 C 68.777344 4.523438 69.214844 4.921875 69.636719 5.34375 C 70.058594 5.761719 70.457031 6.203125 70.835938 6.664062 C 71.210938 7.125 71.566406 7.601562 71.898438 8.097656 C 72.226562 8.589844 72.535156 9.101562 72.8125 9.625 C 73.09375 10.152344 73.347656 10.6875 73.578125 11.238281 C 73.804688 11.789062 74.003906 12.347656 74.175781 12.917969 C 74.351562 13.488281 74.496094 14.0625 74.609375 14.648438 C 74.726562 15.230469 74.8125 15.820312 74.871094 16.410156 C 74.929688 17.003906 74.960938 17.597656 74.960938 18.191406 L 74.960938 56.808594 C 74.960938 57.402344 74.929688 57.996094 74.871094 58.589844 C 74.8125 59.179688 74.726562 59.769531 74.609375 60.351562 C 74.496094 60.9375 74.351562 61.511719 74.175781 62.082031 C 74.003906 62.652344 73.804688 63.210938 73.578125 63.761719 C 73.347656 64.3125 73.09375 64.847656 72.8125 65.375 C 72.535156 65.898438 72.226562 66.410156 71.898438 66.902344 C 71.566406 67.398438 71.210938 67.875 70.835938 68.335938 C 70.457031 68.796875 70.058594 69.238281 69.636719 69.65625 C 69.214844 70.078125 68.777344 70.476562 68.316406 70.855469 C 67.855469 71.234375 67.378906 71.585938 66.882812 71.917969 C 66.390625 72.25 65.878906 72.554688 65.355469 72.835938 C 64.828125 73.113281 64.292969 73.367188 63.742188 73.597656 C 63.191406 73.824219 62.632812 74.023438 62.0625 74.199219 C 61.492188 74.371094 60.917969 74.515625 60.332031 74.628906 C 59.75 74.746094 59.160156 74.835938 58.570312 74.890625 C 57.976562 74.949219 57.382812 74.980469 56.789062 74.980469 L 18.171875 74.980469 C 17.578125 74.980469 16.984375 74.949219 16.390625 74.890625 C 15.796875 74.835938 15.210938 74.746094 14.625 74.628906 C 14.042969 74.515625 13.464844 74.371094 12.898438 74.199219 C 12.328125 74.023438 11.769531 73.824219 11.21875 73.597656 C 10.667969 73.367188 10.128906 73.113281 9.605469 72.835938 C 9.082031 72.554688 8.570312 72.25 8.078125 71.917969 C 7.582031 71.585938 7.105469 71.234375 6.644531 70.855469 C 6.183594 70.476562 5.742188 70.078125 5.324219 69.65625 C 4.902344 69.238281 4.503906 68.796875 4.125 68.335938 C 3.746094 67.875 3.394531 67.398438 3.0625 66.902344 C 2.730469 66.410156 2.425781 65.898438 2.144531 65.375 C 1.863281 64.847656 1.609375 64.3125 1.382812 63.761719 C 1.15625 63.210938 0.957031 62.652344 0.78125 62.082031 C 0.609375 61.511719 0.464844 60.9375 0.347656 60.351562 C 0.234375 59.769531 0.144531 59.179688 0.0859375 58.589844 C 0.0273438 57.996094 0 57.402344 0 56.808594 L 0 18.191406 C 0 17.597656 0.0273438 17.003906 0.0859375 16.410156 C 0.144531 15.820312 0.234375 15.230469 0.347656 14.648438 C 0.464844 14.0625 0.609375 13.488281 0.78125 12.917969 C 0.957031 12.347656 1.15625 11.789062 1.382812 11.238281 C 1.609375 10.6875 1.863281 10.152344 2.144531 9.625 C 2.425781 9.101562 2.730469 8.589844 3.0625 8.097656 C 3.394531 7.601562 3.746094 7.125 4.125 6.664062 C 4.503906 6.203125 4.902344 5.761719 5.324219 5.34375 C 5.742188 4.921875 6.183594 4.523438 6.644531 4.144531 C 7.105469 3.765625 7.582031 3.414062 8.078125 3.082031 C 8.570312 2.75 9.082031 2.445312 9.605469 2.164062 C 10.128906 1.886719 10.667969 1.632812 11.21875 1.402344 C 11.769531 1.175781 12.328125 0.976562 12.898438 0.800781 C 13.464844 0.628906 14.042969 0.484375 14.625 0.371094 C 15.210938 0.253906 15.796875 0.164062 16.390625 0.109375 C 16.984375 0.0507812 17.578125 0.0195312 18.171875 0.0195312 Z M 18.171875 0.0195312 " fill-opacity="1" fill-rule="nonzero"/></g><path fill="#ffffff" d="M 32.9375 39.773438 C 32.9375 35.378906 36.496094 31.820312 40.886719 31.820312 L 42.023438 31.820312 L 42.023438 47.722656 C 42.023438 52.113281 38.464844 55.671875 34.074219 55.671875 L 32.9375 55.671875 Z M 32.9375 39.773438 " fill-opacity="1" fill-rule="nonzero"/><path fill="#ffffff" d="M 26.121094 28.414062 C 23.613281 28.414062 21.578125 26.378906 21.578125 23.871094 C 21.578125 21.363281 23.613281 19.328125 26.121094 19.328125 L 48.835938 19.328125 C 51.347656 19.328125 53.378906 21.363281 53.378906 23.871094 C 53.378906 26.378906 51.347656 28.414062 48.835938 28.414062 Z M 26.121094 28.414062 " fill-opacity="1" fill-rule="nonzero"/><path fill="#4090e4" d="M 42.023438 23.871094 C 42.023438 24.167969 41.992188 24.464844 41.9375 24.757812 C 41.878906 25.050781 41.792969 25.332031 41.675781 25.609375 C 41.5625 25.886719 41.421875 26.148438 41.257812 26.394531 C 41.089844 26.644531 40.902344 26.871094 40.691406 27.082031 C 40.480469 27.292969 40.253906 27.484375 40.003906 27.648438 C 39.757812 27.8125 39.492188 27.953125 39.21875 28.066406 C 38.941406 28.183594 38.660156 28.269531 38.367188 28.328125 C 38.074219 28.386719 37.777344 28.414062 37.480469 28.414062 C 37.183594 28.414062 36.886719 28.386719 36.59375 28.328125 C 36.300781 28.269531 36.015625 28.183594 35.742188 28.066406 C 35.464844 27.953125 35.203125 27.8125 34.957031 27.648438 C 34.707031 27.484375 34.476562 27.292969 34.269531 27.082031 C 34.058594 26.871094 33.867188 26.644531 33.703125 26.394531 C 33.535156 26.148438 33.398438 25.886719 33.28125 25.609375 C 33.167969 25.332031 33.082031 25.050781 33.023438 24.757812 C 32.964844 24.464844 32.9375 24.167969 32.9375 23.871094 C 32.9375 23.574219 32.964844 23.277344 33.023438 22.984375 C 33.082031 22.691406 33.167969 22.40625 33.28125 22.132812 C 33.398438 21.855469 33.535156 21.59375 33.703125 21.347656 C 33.867188 21.097656 34.058594 20.871094 34.269531 20.660156 C 34.476562 20.449219 34.707031 20.257812 34.957031 20.09375 C 35.203125 19.929688 35.464844 19.789062 35.742188 19.671875 C 36.015625 19.558594 36.300781 19.472656 36.59375 19.414062 C 36.886719 19.355469 37.183594 19.328125 37.480469 19.328125 C 37.777344 19.328125 38.074219 19.355469 38.367188 19.414062 C 38.660156 19.472656 38.941406 19.558594 39.21875 19.671875 C 39.492188 19.789062 39.757812 19.929688 40.003906 20.09375 C 40.253906 20.257812 40.480469 20.449219 40.691406 20.660156 C 40.902344 20.871094 41.089844 21.097656 41.257812 21.347656 C 41.421875 21.59375 41.5625 21.855469 41.675781 22.132812 C 41.792969 22.40625 41.878906 22.691406 41.9375 22.984375 C 41.992188 23.277344 42.023438 23.574219 42.023438 23.871094 Z M 42.023438 23.871094 " fill-opacity="1" fill-rule="nonzero"/><g fill="#161616" fill-opacity="1"><g transform="translate(76.788499, 49.868395)"><g><path d="M 7.71875 0 L 3.0625 0 L 3.0625 -23.53125 L 7.71875 -23.53125 Z M 7.71875 0 "/></g></g></g><g fill="#161616" fill-opacity="1"><g transform="translate(87.574807, 49.868395)"><g><path d="M 2.5625 0 L 2.5625 -17.75 L 6.84375 -17.75 L 6.84375 -15.140625 L 7.1875 -15.0625 C 8.289062 -17.082031 10.082031 -18.09375 12.5625 -18.09375 C 14.601562 -18.09375 16.101562 -17.535156 17.0625 -16.421875 C 18.03125 -15.304688 18.515625 -13.679688 18.515625 -11.546875 L 18.515625 0 L 14.046875 0 L 14.046875 -11 C 14.046875 -12.175781 13.8125 -13.023438 13.34375 -13.546875 C 12.875 -14.066406 12.117188 -14.328125 11.078125 -14.328125 C 9.796875 -14.328125 8.796875 -13.910156 8.078125 -13.078125 C 7.367188 -12.253906 7.015625 -10.957031 7.015625 -9.1875 L 7.015625 0 Z M 2.5625 0 "/></g></g></g><g fill="#161616" fill-opacity="1"><g transform="translate(108.374672, 49.868395)"><g><path d="M 8.3125 0.34375 C 7.09375 0.34375 5.976562 0.203125 4.96875 -0.078125 C 3.96875 -0.367188 3.109375 -0.765625 2.390625 -1.265625 C 1.671875 -1.765625 1.144531 -2.335938 0.8125 -2.984375 L 3.28125 -5.65625 L 3.625 -5.65625 C 4.207031 -4.851562 4.898438 -4.253906 5.703125 -3.859375 C 6.515625 -3.460938 7.394531 -3.265625 8.34375 -3.265625 C 9.207031 -3.265625 9.859375 -3.421875 10.296875 -3.734375 C 10.742188 -4.046875 10.96875 -4.492188 10.96875 -5.078125 C 10.96875 -5.523438 10.804688 -5.898438 10.484375 -6.203125 C 10.171875 -6.515625 9.660156 -6.753906 8.953125 -6.921875 L 6.59375 -7.484375 C 4.832031 -7.898438 3.546875 -8.539062 2.734375 -9.40625 C 1.929688 -10.269531 1.53125 -11.367188 1.53125 -12.703125 C 1.53125 -13.804688 1.8125 -14.765625 2.375 -15.578125 C 2.9375 -16.398438 3.726562 -17.023438 4.75 -17.453125 C 5.78125 -17.878906 6.976562 -18.09375 8.34375 -18.09375 C 9.9375 -18.09375 11.257812 -17.859375 12.3125 -17.390625 C 13.363281 -16.929688 14.1875 -16.316406 14.78125 -15.546875 L 12.390625 -12.96875 L 12.078125 -12.96875 C 11.578125 -13.53125 11.019531 -13.9375 10.40625 -14.1875 C 9.789062 -14.445312 9.101562 -14.578125 8.34375 -14.578125 C 6.582031 -14.578125 5.703125 -14.03125 5.703125 -12.9375 C 5.703125 -12.476562 5.863281 -12.101562 6.1875 -11.8125 C 6.519531 -11.519531 7.097656 -11.285156 7.921875 -11.109375 L 10.109375 -10.625 C 11.910156 -10.238281 13.226562 -9.617188 14.0625 -8.765625 C 14.894531 -7.910156 15.3125 -6.765625 15.3125 -5.328125 C 15.3125 -4.203125 15.03125 -3.207031 14.46875 -2.34375 C 13.914062 -1.488281 13.113281 -0.828125 12.0625 -0.359375 C 11.007812 0.109375 9.757812 0.34375 8.3125 0.34375 Z M 8.3125 0.34375 "/></g></g></g><g fill="#161616" fill-opacity="1"><g transform="translate(124.747327, 49.868395)"><g><path d="M 12.25 -4.234375 L 13.40625 -0.9375 C 12.925781 -0.539062 12.320312 -0.226562 11.59375 0 C 10.863281 0.226562 10.035156 0.34375 9.109375 0.34375 C 7.191406 0.34375 5.734375 -0.175781 4.734375 -1.21875 C 3.734375 -2.269531 3.234375 -3.796875 3.234375 -5.796875 L 3.234375 -14.234375 L 0.53125 -14.234375 L 0.53125 -17.765625 L 3.234375 -17.765625 L 3.234375 -21.234375 L 7.6875 -21.953125 L 7.6875 -17.765625 L 12.734375 -17.765625 L 12.734375 -14.234375 L 7.6875 -14.234375 L 7.6875 -6.125 C 7.6875 -5.238281 7.867188 -4.59375 8.234375 -4.1875 C 8.609375 -3.789062 9.140625 -3.59375 9.828125 -3.59375 C 10.628906 -3.59375 11.320312 -3.804688 11.90625 -4.234375 Z M 12.25 -4.234375 "/></g></g></g><g fill="#161616" fill-opacity="1"><g transform="translate(138.544148, 49.868395)"><g><path d="M 6.921875 0.34375 C 5.785156 0.34375 4.796875 0.132812 3.953125 -0.28125 C 3.117188 -0.707031 2.476562 -1.320312 2.03125 -2.125 C 1.582031 -2.9375 1.359375 -3.914062 1.359375 -5.0625 C 1.359375 -6.101562 1.582031 -6.976562 2.03125 -7.6875 C 2.476562 -8.40625 3.171875 -8.992188 4.109375 -9.453125 C 5.054688 -9.910156 6.296875 -10.265625 7.828125 -10.515625 C 8.890625 -10.679688 9.695312 -10.863281 10.25 -11.0625 C 10.800781 -11.269531 11.171875 -11.503906 11.359375 -11.765625 C 11.554688 -12.023438 11.65625 -12.351562 11.65625 -12.75 C 11.65625 -13.320312 11.457031 -13.753906 11.0625 -14.046875 C 10.664062 -14.347656 10.003906 -14.5 9.078125 -14.5 C 8.085938 -14.5 7.144531 -14.28125 6.25 -13.84375 C 5.363281 -13.40625 4.59375 -12.828125 3.9375 -12.109375 L 3.625 -12.109375 L 1.75 -14.921875 C 2.65625 -15.921875 3.753906 -16.695312 5.046875 -17.25 C 6.347656 -17.8125 7.765625 -18.09375 9.296875 -18.09375 C 11.648438 -18.09375 13.351562 -17.59375 14.40625 -16.59375 C 15.457031 -15.59375 15.984375 -14.175781 15.984375 -12.34375 L 15.984375 -4.640625 C 15.984375 -3.835938 16.332031 -3.4375 17.03125 -3.4375 C 17.300781 -3.4375 17.566406 -3.488281 17.828125 -3.59375 L 18.046875 -3.53125 L 18.375 -0.421875 C 18.125 -0.253906 17.773438 -0.117188 17.328125 -0.015625 C 16.890625 0.078125 16.410156 0.125 15.890625 0.125 C 14.828125 0.125 14 -0.078125 13.40625 -0.484375 C 12.8125 -0.890625 12.382812 -1.53125 12.125 -2.40625 L 11.78125 -2.4375 C 10.914062 -0.582031 9.296875 0.34375 6.921875 0.34375 Z M 8.34375 -3 C 9.375 -3 10.195312 -3.34375 10.8125 -4.03125 C 11.425781 -4.726562 11.734375 -5.691406 11.734375 -6.921875 L 11.734375 -8.71875 L 11.421875 -8.796875 C 11.160156 -8.578125 10.8125 -8.394531 10.375 -8.25 C 9.9375 -8.101562 9.3125 -7.960938 8.5 -7.828125 C 7.53125 -7.660156 6.832031 -7.378906 6.40625 -6.984375 C 5.988281 -6.597656 5.78125 -6.046875 5.78125 -5.328125 C 5.78125 -4.566406 6.003906 -3.988281 6.453125 -3.59375 C 6.898438 -3.195312 7.53125 -3 8.34375 -3 Z M 8.34375 -3 "/></g></g></g><g fill="#161616" fill-opacity="1"><g transform="translate(157.267253, 49.868395)"><g><path d="M 18.859375 -23.53125 L 18.859375 -19.625 L 12.078125 -19.625 L 12.078125 0 L 7.4375 0 L 7.4375 -19.625 L 0.640625 -19.625 L 0.640625 -23.53125 Z M 18.859375 -23.53125 "/></g></g></g><g fill="#161616" fill-opacity="1"><g transform="translate(176.779201, 49.868395)"><g><path d="M 6.921875 0.34375 C 5.785156 0.34375 4.796875 0.132812 3.953125 -0.28125 C 3.117188 -0.707031 2.476562 -1.320312 2.03125 -2.125 C 1.582031 -2.9375 1.359375 -3.914062 1.359375 -5.0625 C 1.359375 -6.101562 1.582031 -6.976562 2.03125 -7.6875 C 2.476562 -8.40625 3.171875 -8.992188 4.109375 -9.453125 C 5.054688 -9.910156 6.296875 -10.265625 7.828125 -10.515625 C 8.890625 -10.679688 9.695312 -10.863281 10.25 -11.0625 C 10.800781 -11.269531 11.171875 -11.503906 11.359375 -11.765625 C 11.554688 -12.023438 11.65625 -12.351562 11.65625 -12.75 C 11.65625 -13.320312 11.457031 -13.753906 11.0625 -14.046875 C 10.664062 -14.347656 10.003906 -14.5 9.078125 -14.5 C 8.085938 -14.5 7.144531 -14.28125 6.25 -13.84375 C 5.363281 -13.40625 4.59375 -12.828125 3.9375 -12.109375 L 3.625 -12.109375 L 1.75 -14.921875 C 2.65625 -15.921875 3.753906 -16.695312 5.046875 -17.25 C 6.347656 -17.8125 7.765625 -18.09375 9.296875 -18.09375 C 11.648438 -18.09375 13.351562 -17.59375 14.40625 -16.59375 C 15.457031 -15.59375 15.984375 -14.175781 15.984375 -12.34375 L 15.984375 -4.640625 C 15.984375 -3.835938 16.332031 -3.4375 17.03125 -3.4375 C 17.300781 -3.4375 17.566406 -3.488281 17.828125 -3.59375 L 18.046875 -3.53125 L 18.375 -0.421875 C 18.125 -0.253906 17.773438 -0.117188 17.328125 -0.015625 C 16.890625 0.078125 16.410156 0.125 15.890625 0.125 C 14.828125 0.125 14 -0.078125 13.40625 -0.484375 C 12.8125 -0.890625 12.382812 -1.53125 12.125 -2.40625 L 11.78125 -2.4375 C 10.914062 -0.582031 9.296875 0.34375 6.921875 0.34375 Z M 8.34375 -3 C 9.375 -3 10.195312 -3.34375 10.8125 -4.03125 C 11.425781 -4.726562 11.734375 -5.691406 11.734375 -6.921875 L 11.734375 -8.71875 L 11.421875 -8.796875 C 11.160156 -8.578125 10.8125 -8.394531 10.375 -8.25 C 9.9375 -8.101562 9.3125 -7.960938 8.5 -7.828125 C 7.53125 -7.660156 6.832031 -7.378906 6.40625 -6.984375 C 5.988281 -6.597656 5.78125 -6.046875 5.78125 -5.328125 C 5.78125 -4.566406 6.003906 -3.988281 6.453125 -3.59375 C 6.898438 -3.195312 7.53125 -3 8.34375 -3 Z M 8.34375 -3 "/></g></g></g><g fill="#161616" fill-opacity="1"><g transform="translate(195.502306, 49.868395)"><g><path d="M 7.375 0.34375 C 5.769531 0.34375 4.546875 -0.0859375 3.703125 -0.953125 C 2.867188 -1.816406 2.453125 -3.128906 2.453125 -4.890625 L 2.453125 -24.890625 L 6.90625 -24.890625 L 6.90625 -5.078125 C 6.90625 -3.984375 7.359375 -3.4375 8.265625 -3.4375 C 8.515625 -3.4375 8.785156 -3.484375 9.078125 -3.578125 L 9.296875 -3.515625 L 9.703125 -0.078125 C 9.460938 0.046875 9.132812 0.144531 8.71875 0.21875 C 8.3125 0.300781 7.863281 0.34375 7.375 0.34375 Z M 7.375 0.34375 "/></g></g></g><g fill="#161616" fill-opacity="1"><g transform="translate(205.709051, 49.868395)"><g><path d="M 2.5625 0 L 2.5625 -24.890625 L 7.015625 -24.890625 L 7.015625 -11.078125 L 7.453125 -11.078125 L 12.59375 -17.75 L 17.109375 -17.75 L 17.109375 -17.390625 L 11.078125 -9.59375 L 17.78125 -0.40625 L 17.78125 0 L 13.09375 0 L 7.453125 -7.484375 L 7.015625 -7.484375 L 7.015625 0 Z M 2.5625 0 "/></g></g></g></svg>